<?xml version="1.0" encoding="utf-8"?>
<!-- Generator: Adobe Illustrator 15.1.0, SVG Export Plug-In . SVG Version: 6.00 Build 0)  -->
<!DOCTYPE svg PUBLIC "-//W3C//DTD SVG 1.1//EN" "http://www.w3.org/Graphics/SVG/1.1/DTD/svg11.dtd">
<svg version="1.1" id="Camada_1" xmlns="http://www.w3.org/2000/svg" xmlns:xlink="http://www.w3.org/1999/xlink" x="0px" y="0px"
	 width="662.966px" height="577.471px" viewBox="0 0 662.966 577.471" enable-background="new 0 0 662.966 577.471"
	 xml:space="preserve">
<path d="M8.394,27.396l0.049,6l0.016,2.001l3.435,421.5c0,0,0.651,4.448,5.794,8.493c2.785,2.19,5.793,4.136,12.917,5.446
	s428.42-4.099,533.778-5.313c6.195-0.071,36.033,0.199,36.033,0.199s6.373-0.745,12.685-2.037c4.224-0.864,8.42-1.973,10.662-3.266
	c1.662-0.958,3.054-2.07,4.106-3.36c4.386-5.377,6.122-8.241,7.321-14.102s0.427-11.946,0.538-21.062c0.195-16,4-315.333,4-315.333
	l-78.584-1.417l-0.083-79.917L41.394,19.396C41.394,19.396,16.894,15.896,8.394,27.396z"/>
<rect x="53.728" y="60.563" fill="none" width="342" height="370"/>
<polygon fill="#2D0827" stroke="#000000" stroke-miterlimit="10" points="399.061,237.229 399.061,60.563 53.728,60.563 
	53.728,430.563 399.061,430.563 596.394,430.563 596.394,237.229 "/>
<rect x="427.727" y="147.146" fill="#2D0827" width="61.333" height="66.667"/>
<rect x="514.561" y="106.563" fill="#2D0827" width="45.333" height="46.333"/>
<rect x="592.061" y="11.729" fill="#2D0827" stroke="#000000" stroke-width="6" stroke-miterlimit="10" width="60.833" height="63.5"/>
<polygon points="399.394,490.896 255.894,490.896 226.894,529.896 226.894,568.896 255.894,568.896 399.394,568.896 
	427.894,568.896 427.894,529.896 "/>
<g>
	<path fill="#FFFFFF" stroke="#000000" stroke-width="6" stroke-miterlimit="10" d="M123.565,267.604
		c0.902,0.414,53.845,17.827,84.925-15.161c0.402,0,170.552-154.903,170.552-154.903h-0.902L226.237,216.997v-14.651V76.332H174.2
		v126.013c0,0,0.2,22.129-22.961,22.945c-0.301-0.096-14.013,2.488-27.673-18.028l-33.288,32.579
		C90.277,239.842,100.202,256.741,123.565,267.604z"/>
	<polygon fill="#FFFFFF" stroke="#000000" stroke-width="6" stroke-miterlimit="10" points="247.067,234.847 238.721,243.223 
		72.73,392.8 72.73,393.621 74.737,393.621 238.721,266.581 262.033,266.581 303.143,266.581 214.506,368.621 214.206,368.621 
		208.991,375.175 208.991,376.074 208.991,414.416 214.206,414.416 375.434,414.416 375.434,368.621 282.19,368.621 
		371.373,266.581 375.434,261.048 375.434,221.708 262.033,221.708 	"/>
</g>
</svg>
